# xmcd CD database file
#
# Track frame offsets:
#	150
#	14031
#	18900
#	36561
#	41361
#	58761
#	63561
#	81111
#	85902
#	105979
#	110654
#	122925
#	127604
#	141254
#	146094
#	161248
#	166048
#	193770
#	198615
#	213351
#	218188
#	234647
#
# Disc length: 3191 seconds
#
# Revision: 0
# Processed by: cddbd v1.5.1PL0 Copyright (c) Steve Scherf et al.
# Submitted via: CDex 1.51
#
DISCID=450c7516
DTITLE=Music 2 Hues - #54 Progressive New Age
DYEAR=1900
DGENRE=New Age
TTITLE0=Moving Out- full
TTITLE1=Moving Out
TTITLE2=Moving In-full
TTITLE3=Moving In
TTITLE4=Fast Cars-full
TTITLE5=Fast Cars
TTITLE6=Vanilla Cream-full
TTITLE7=Vanilla Cream
TTITLE8=Soft Rocks-full
TTITLE9=Soft Rocks
TTITLE10=Liquid Metal-full
TTITLE11=Liquid Metal
TTITLE12=Blue Ball-full
TTITLE13=Blue Ball
TTITLE14=Slippery Edge-full
TTITLE15=Slippery Edge
TTITLE16=Weather Forecast-full
TTITLE17=Weather Forecast
TTITLE18=Home Base-full
TTITLE19=Home Base
TTITLE20=Night Concert-full
TTITLE21=Night Concert
EXTD=
EXTT0=
EXTT1=
EXTT2=
EXTT3=
EXTT4=
EXTT5=
EXTT6=
EXTT7=
EXTT8=
EXTT9=
EXTT10=
EXTT11=
EXTT12=
EXTT13=
EXTT14=
EXTT15=
EXTT16=
EXTT17=
EXTT18=
EXTT19=
EXTT20=
EXTT21=
PLAYORDER=
